<svg width="24" height="24" viewBox="0 0 24 24" fill="none" xmlns="http://www.w3.org/2000/svg">
<path d="M19.5 5.24951H16.9012L15.6234 3.33326C15.555 3.23065 15.4623 3.14651 15.3535 3.0883C15.2448 3.03008 15.1233 2.99959 15 2.99951H9C8.87665 2.99959 8.75522 3.03008 8.64648 3.0883C8.53773 3.14651 8.44502 3.23065 8.37656 3.33326L7.09781 5.24951H4.5C3.90326 5.24951 3.33097 5.48656 2.90901 5.90852C2.48705 6.33048 2.25 6.90277 2.25 7.49951V17.9995C2.25 18.5962 2.48705 19.1685 2.90901 19.5905C3.33097 20.0125 3.90326 20.2495 4.5 20.2495H19.5C20.0967 20.2495 20.669 20.0125 21.091 19.5905C21.5129 19.1685 21.75 18.5962 21.75 17.9995V7.49951C21.75 6.90277 21.5129 6.33048 21.091 5.90852C20.669 5.48656 20.0967 5.24951 19.5 5.24951ZM15.375 12.3745C15.375 13.042 15.1771 13.6945 14.8062 14.2496C14.4354 14.8046 13.9083 15.2372 13.2916 15.4926C12.6749 15.7481 11.9963 15.8149 11.3416 15.6847C10.6869 15.5544 10.0855 15.233 9.61351 14.761C9.14151 14.289 8.82007 13.6876 8.68985 13.0329C8.55962 12.3783 8.62646 11.6997 8.88191 11.083C9.13735 10.4663 9.56993 9.93915 10.125 9.5683C10.68 9.19745 11.3325 8.99951 12 8.99951C12.8951 8.99951 13.7535 9.35509 14.3865 9.98803C15.0194 10.621 15.375 11.4794 15.375 12.3745Z" fill="#2D293B"/>
</svg>
